<svg width="200" height="200" viewBox="0 0 200 200" fill="none" xmlns="http://www.w3.org/2000/svg">
<circle cx="100" cy="100" r="100" fill="#242424"/>
<path d="M128.052 91.9203C128.052 90.9771 127.862 90.7884 126.937 90.7884H111.314C110.704 90.7884 110.578 90.6417 110.599 90.0548C110.599 80.79 110.599 71.5043 110.599 62.2395C110.64 61.8845 110.602 61.5249 110.488 61.186C110.375 60.8471 110.188 60.537 109.942 60.2774C109.695 60.0179 109.395 59.8151 109.062 59.6834C108.729 59.5516 108.371 59.494 108.013 59.5146H62.7416C62.518 59.4832 62.2902 59.5027 62.0754 59.5716C61.8605 59.6406 61.6641 59.7573 61.501 59.9129V79.7629C61.7954 80.5594 62.4682 80.5175 63.12 80.5175H86.1236C87.3012 80.5175 87.3011 80.5175 87.3011 81.7123V108.396C87.3011 116.976 87.3011 125.556 87.3011 134.136C87.216 134.557 87.283 134.995 87.4904 135.372C87.4904 135.603 87.4904 135.813 87.4904 136.043C87.4904 136.693 87.4904 137.343 87.4904 137.993C87.4752 138.326 87.5303 138.659 87.652 138.97C87.7738 139.281 87.9594 139.563 88.1971 139.798C88.4349 140.033 88.7193 140.215 89.0321 140.334C89.345 140.453 89.6794 140.505 90.0137 140.487C95.9012 140.487 101.782 140.487 107.655 140.487C108.052 140.526 108.452 140.477 108.827 140.343C109.202 140.21 109.542 139.995 109.824 139.714C110.106 139.433 110.321 139.094 110.455 138.72C110.589 138.346 110.638 137.947 110.599 137.552C110.599 129.168 110.599 120.784 110.599 112.273C110.599 111.77 110.599 111.603 111.23 111.624H126.853C127.862 111.624 128.052 111.435 128.052 110.471V91.9203Z" fill="white"/>
<path d="M118.252 69.8694V60.4789C118.252 59.7872 118.252 59.5356 119.198 59.5356H137.513C138.291 59.5356 138.501 59.7453 138.501 60.5208V79.3857C138.501 80.0774 138.249 80.3499 137.534 80.3499H119.177C118.357 80.3499 118.252 80.2451 118.252 79.4067V69.8694Z" fill="#FF7100"/>
</svg>
